# xmcd CD database file
#
# Track frame offsets:
#	150
#	17472
#	36087
#	57185
#	77928
#	94275
#
# Disc length: 1426 seconds
#
# Revision: 0
# Processed by: cddbd v1.5PL3 Copyright (c) Steve Scherf et al.
# Submitted via: CDex 1.51
#
DISCID=41059006
DTITLE=Lauren Gifford - Sitting Pretty
DYEAR=2004
DGENRE=Jazz
TTITLE0=Sitting Pretty
TTITLE1=Sleepwalker
TTITLE2=Together
TTITLE3=Never Look Back
TTITLE4=April
TTITLE5=Temptation
EXTD=YEAR: 2004
EXTT0=
EXTT1=
EXTT2=
EXTT3=
EXTT4=
EXTT5=
PLAYORDER=
